<svg width="2000px" height="961px"
 viewBox="0.00 0.00 1972.00 948.00" xmlns="http://www.w3.org/2000/svg" xmlns:xlink="http://www.w3.org/1999/xlink">
<g id="graph0" class="graph" transform="scale(1.0 1.0) rotate(0) translate(4 944.09)">
<title>ContextMapGraph</title>
<polygon fill="white" stroke="none" points="-4,4 -4,-944.09 1967.52,-944.09 1967.52,4 -4,4"/>
<!-- B2B2CPartners -->
<g id="node1" class="node">
<title>B2B2CPartners</title>
<polygon fill="none" stroke="black" stroke-width="2" points="1099.44,-751.24 1097.55,-754.06 1095.4,-756.84 1092.98,-759.55 1090.31,-762.18 1087.4,-764.73 1084.25,-767.18 1080.88,-769.52 1077.29,-771.75 1073.5,-773.86 1069.52,-775.83 1065.36,-777.67 1061.03,-779.36 1056.54,-780.9 1051.92,-782.29 1047.16,-783.51 1042.28,-784.58 1037.3,-785.48 1032.22,-786.22 1027.07,-786.79 1021.85,-787.19 1016.58,-787.44 1011.27,-787.52 1005.94,-787.44 1000.59,-787.21 995.24,-786.82 989.91,-786.29 984.6,-785.62 979.33,-784.81 974.11,-783.87 968.96,-782.81 963.88,-781.63 958.89,-780.35 954,-778.96 949.23,-777.48 944.57,-775.92 940.06,-774.27 935.68,-772.55 931.47,-770.77 927.42,-768.94 923.55,-767.05 919.86,-765.12 916.38,-763.16 913.1,-761.16 910.03,-759.14 907.18,-757.1 904.57,-755.05 902.2,-752.99 900.07,-750.92 898.19,-748.86 896.57,-746.8 895.22,-744.74 894.13,-742.7 893.32,-740.66 892.78,-738.65 892.53,-736.64 892.55,-734.66 892.86,-732.7 893.46,-730.76 894.34,-728.84 895.5,-726.94 896.95,-725.07 898.68,-723.23 900.69,-721.42 902.97,-719.63 905.52,-717.87 908.33,-716.15 911.4,-714.46 914.73,-712.8 918.29,-711.19 922.09,-709.61 926.11,-708.08 930.35,-706.59 934.79,-705.15 939.42,-703.77 944.22,-702.44 949.19,-701.17 954.31,-699.96 959.57,-698.83 964.95,-697.77 970.43,-696.79 976,-695.89 981.64,-695.08 987.34,-694.37 993.08,-693.76 998.84,-693.25 1004.6,-692.85 1010.35,-692.56 1016.06,-692.4 1021.73,-692.36 1027.33,-692.44 1032.84,-692.66 1038.26,-693.02 1043.56,-693.51 1048.72,-694.14 1053.74,-694.92 1058.59,-695.83 1063.26,-696.9 1067.74,-698.1 1072.01,-699.45 1076.07,-700.94 1079.89,-702.56 1083.47,-704.33 1086.8,-706.22 1089.87,-708.24 1092.66,-710.38 1095.18,-712.64 1097.42,-715 1099.37,-717.46 1101.02,-720.02 1102.37,-722.65 1103.43,-725.36 1104.18,-728.14 1104.63,-730.96 1104.78,-733.83 1104.62,-736.72 1104.17,-739.64 1103.42,-742.56 1102.38,-745.47 1101.05,-748.37 1099.44,-751.24"/>
<text xml:space="preserve" text-anchor="middle" x="997.81" y="-733.28" font-family="sans-serif" font-size="16.00">B2B2CPartners</text>
</g>
<!-- PartnerIntegration -->
<g id="node2" class="node">
<title>PartnerIntegration</title>
<polygon fill="none" stroke="black" stroke-width="2" points="884.21,-485.77 887.2,-483.05 890.48,-480.38 894.04,-477.8 897.88,-475.29 901.97,-472.89 906.3,-470.59 910.86,-468.41 915.64,-466.35 920.62,-464.42 925.77,-462.64 931.1,-460.99 936.58,-459.51 942.2,-458.17 947.94,-457 953.78,-455.99 959.71,-455.15 965.72,-454.47 971.79,-453.96 977.9,-453.62 984.04,-453.45 990.19,-453.44 996.34,-453.6 1002.47,-453.91 1008.58,-454.38 1014.64,-455 1020.64,-455.76 1026.57,-456.67 1032.42,-457.71 1038.17,-458.87 1043.82,-460.15 1049.34,-461.55 1054.73,-463.05 1059.97,-464.64 1065.06,-466.33 1069.98,-468.09 1074.73,-469.93 1079.28,-471.83 1083.63,-473.78 1087.78,-475.79 1091.71,-477.84 1095.41,-479.92 1098.87,-482.03 1102.09,-484.16 1105.05,-486.3 1107.75,-488.46 1110.17,-490.61 1112.32,-492.77 1114.19,-494.92 1115.76,-497.05 1117.04,-499.17 1118.02,-501.28 1118.69,-503.36 1119.04,-505.42 1119.08,-507.45 1118.81,-509.45 1118.21,-511.42 1117.29,-513.36 1116.05,-515.27 1114.48,-517.13 1112.6,-518.97 1110.39,-520.76 1107.87,-522.52 1105.03,-524.24 1101.89,-525.91 1098.44,-527.54 1094.7,-529.13 1090.67,-530.68 1086.37,-532.18 1081.79,-533.63 1076.96,-535.03 1071.87,-536.37 1066.56,-537.66 1061.03,-538.9 1055.29,-540.07 1049.36,-541.18 1043.26,-542.22 1037.01,-543.19 1030.62,-544.09 1024.11,-544.9 1017.5,-545.64 1010.82,-546.28 1004.07,-546.84 997.29,-547.29 990.5,-547.65 983.71,-547.9 976.95,-548.04 970.23,-548.07 963.59,-547.98 957.04,-547.77 950.6,-547.44 944.3,-546.98 938.15,-546.38 932.18,-545.66 926.4,-544.8 920.83,-543.81 915.5,-542.68 910.41,-541.42 905.59,-540.02 901.04,-538.49 896.79,-536.83 892.84,-535.04 889.21,-533.13 885.92,-531.1 882.95,-528.96 880.34,-526.7 878.08,-524.35 876.17,-521.9 874.63,-519.37 873.46,-516.75 872.65,-514.07 872.21,-511.33 872.13,-508.54 872.42,-505.71 873.07,-502.85 874.08,-499.98 875.43,-497.1 877.13,-494.23 879.17,-491.38 881.53,-488.55 884.21,-485.77"/>
<text xml:space="preserve" text-anchor="middle" x="997.81" y="-498.01" font-family="sans-serif" font-size="16.00">PartnerIntegration</text>
</g>
<!-- B2B2CPartners&#45;&gt;PartnerIntegration -->
<g id="edge1" class="edge">
<title>B2B2CPartners&#45;&gt;PartnerIntegration</title>
<path fill="none" stroke="black" stroke-width="2" d="M997.81,-692.93C997.81,-651.16 997.81,-589.01 997.81,-547.55"/>
<text xml:space="preserve" text-anchor="middle" x="1147.81" y="-617.03" font-family="sans-serif" font-size="12.00"> &#160;&#160;&#160;&#160;&#160;&#160;&#160;&#160;&#160;&#160;&#160;&#160;&#160;&#160;&#160;&#160;&#160;&#160;&#160;&#160;&#160;&#160;&#160;&#160;&#160;&#160;&#160;&#160;&#160;&#160;&#160;&#160;&#160;&#160;&#160;&#160;&#160;&#160;&#160;&#160;&#160;&#160;&#160;&#160;&#160;&#160;&#160;&#160;&#160;&#160;&#160;&#160;&#160;&#160;&#160;&#160;&#160;&#160;&#160;&#160;&#160;&#160;&#160;&#160;&#160;&#160;&#160;&#160;&#160;&#160;&#160;&#160;&#160;&#160;&#160;&#160;&#160;&#160;&#160;</text>
<polygon fill="white" stroke="none" points="977.18,-536.68 977.18,-558.43 991.43,-558.43 991.43,-536.68 977.18,-536.68"/>
<polyline fill="none" stroke="black" points="991.43,-536.68 991.43,-558.43"/>
<text xml:space="preserve" text-anchor="start" x="980.18" y="-542.68" font-family="sans-serif" font-size="12.00">D</text>
<polygon fill="white" stroke="none" points="991.43,-536.68 991.43,-558.43 1018.43,-558.43 1018.43,-536.68 991.43,-536.68"/>
<polygon fill="none" stroke="black" points="991.43,-536.68 991.43,-558.43 1018.43,-558.43 1018.43,-536.68 991.43,-536.68"/>
<text xml:space="preserve" text-anchor="start" x="994.43" y="-542.68" font-family="sans-serif" font-size="12.00">ACL</text>
<polygon fill="white" stroke="none" points="992.06,-683.06 992.06,-702.81 1003.56,-702.81 1003.56,-683.06 992.06,-683.06"/>
<text xml:space="preserve" text-anchor="start" x="994.06" y="-688.06" font-family="sans-serif" font-size="12.00">U</text>
</g>
<!-- WorkOrchestration -->
<g id="node3" class="node">
<title>WorkOrchestration</title>
<polygon fill="none" stroke="black" stroke-width="2" points="811.45,-311.67 818.7,-310.32 826.05,-309.1 833.48,-308 840.97,-307.03 848.47,-306.2 855.96,-305.5 863.42,-304.95 870.82,-304.54 878.13,-304.28 885.32,-304.16 892.38,-304.2 899.28,-304.39 906,-304.73 912.52,-305.22 918.83,-305.86 924.9,-306.64 930.72,-307.57 936.28,-308.65 941.57,-309.85 946.58,-311.19 951.29,-312.66 955.71,-314.25 959.83,-315.96 963.64,-317.78 967.15,-319.7 970.35,-321.71 973.24,-323.82 975.82,-326 978.1,-328.26 980.08,-330.58 981.77,-332.96 983.16,-335.38 984.27,-337.84 985.1,-340.33 985.65,-342.84 985.93,-345.36 985.96,-347.89 985.72,-350.41 985.24,-352.92 984.52,-355.4 983.56,-357.86 982.37,-360.28 980.95,-362.66 979.32,-364.99 977.46,-367.26 975.4,-369.47 973.12,-371.61 970.64,-373.68 967.96,-375.67 965.07,-377.58 961.99,-379.4 958.71,-381.13 955.24,-382.77 951.58,-384.31 947.72,-385.76 943.68,-387.1 939.45,-388.34 935.04,-389.48 930.44,-390.52 925.66,-391.45 920.71,-392.28 915.59,-393 910.3,-393.61 904.85,-394.12 899.24,-394.53 893.49,-394.83 887.6,-395.03 881.58,-395.13 875.44,-395.13 869.2,-395.03 862.87,-394.83 856.45,-394.53 849.98,-394.13 843.46,-393.64 836.91,-393.06 830.35,-392.38 823.8,-391.62 817.29,-390.76 810.83,-389.82 804.44,-388.79 798.16,-387.67 792,-386.48 785.98,-385.2 780.14,-383.84 774.49,-382.4 769.06,-380.89 763.88,-379.3 758.96,-377.64 754.34,-375.91 750.03,-374.11 746.05,-372.26 742.43,-370.34 739.18,-368.36 736.32,-366.32 733.87,-364.24 731.84,-362.11 730.25,-359.94 729.1,-357.73 728.41,-355.49 728.18,-353.21 728.42,-350.92 729.12,-348.61 730.29,-346.28 731.93,-343.96 734.03,-341.63 736.58,-339.31 739.58,-337 743.02,-334.72 746.87,-332.47 751.14,-330.25 755.79,-328.07 760.81,-325.95 766.17,-323.88 771.87,-321.88 777.86,-319.96 784.14,-318.11 790.66,-316.35 797.41,-314.69 804.35,-313.12 811.45,-311.67"/>
<text xml:space="preserve" text-anchor="middle" x="866.81" y="-346.88" font-family="sans-serif" font-size="16.00">WorkOrchestration</text>
</g>
<!-- PartnerIntegration&#45;&gt;WorkOrchestration -->
<g id="edge2" class="edge">
<title>PartnerIntegration&#45;&gt;WorkOrchestration</title>
<path fill="none" stroke="black" stroke-width="2" d="M936.24,-459.5C927.5,-452.04 919.03,-443.93 911.81,-435.44 901.65,-423.52 892.79,-408.94 885.67,-395.37"/>
<text xml:space="preserve" text-anchor="middle" x="1061.81" y="-424.04" font-family="sans-serif" font-size="12.00"> &#160;&#160;&#160;&#160;&#160;&#160;&#160;&#160;&#160;&#160;&#160;&#160;&#160;&#160;&#160;&#160;&#160;&#160;&#160;&#160;&#160;&#160;&#160;&#160;&#160;&#160;&#160;&#160;&#160;&#160;&#160;&#160;&#160;&#160;&#160;&#160;&#160;&#160;&#160;&#160;&#160;&#160;&#160;&#160;&#160;&#160;&#160;&#160;&#160;&#160;&#160;&#160;&#160;&#160;&#160;&#160;&#160;&#160;&#160;&#160;&#160;&#160;&#160;&#160;&#160;&#160;&#160;&#160;&#160;&#160;&#160;&#160;&#160;&#160;&#160;&#160;&#160;&#160;&#160;</text>
<polygon fill="white" stroke="none" points="879.54,-385.49 879.54,-405.24 891.79,-405.24 891.79,-385.49 879.54,-385.49"/>
<text xml:space="preserve" text-anchor="start" x="881.54" y="-390.49" font-family="sans-serif" font-size="12.00">D</text>
<polygon fill="white" stroke="none" points="904.74,-448.63 904.74,-470.38 918.24,-470.38 918.24,-448.63 904.74,-448.63"/>
<polyline fill="none" stroke="black" points="918.24,-448.63 918.24,-470.38"/>
<text xml:space="preserve" text-anchor="start" x="907.74" y="-454.63" font-family="sans-serif" font-size="12.00">U</text>
<polygon fill="white" stroke="none" points="918.24,-448.63 918.24,-470.38 967.74,-470.38 967.74,-448.63 918.24,-448.63"/>
<polygon fill="none" stroke="black" points="918.24,-448.63 918.24,-470.38 967.74,-470.38 967.74,-448.63 918.24,-448.63"/>
<text xml:space="preserve" text-anchor="start" x="921.24" y="-454.63" font-family="sans-serif" font-size="12.00">OHS, PL</text>
</g>
<!-- QualityAndDisputes -->
<g id="node4" class="node">
<title>QualityAndDisputes</title>
<polygon fill="none" stroke="black" stroke-width="2" points="421.69,-176.19 426.11,-173.69 430.8,-171.27 435.75,-168.95 440.92,-166.73 446.32,-164.62 451.91,-162.64 457.68,-160.78 463.61,-159.05 469.68,-157.47 475.86,-156.04 482.15,-154.76 488.52,-153.64 494.95,-152.68 501.43,-151.89 507.93,-151.27 514.45,-150.81 520.95,-150.53 527.44,-150.41 533.88,-150.47 540.27,-150.69 546.6,-151.07 552.84,-151.61 558.98,-152.31 565.02,-153.16 570.94,-154.15 576.73,-155.29 582.38,-156.55 587.87,-157.95 593.2,-159.46 598.36,-161.08 603.35,-162.8 608.14,-164.62 612.74,-166.52 617.13,-168.5 621.31,-170.55 625.27,-172.66 629.01,-174.82 632.51,-177.03 635.77,-179.27 638.79,-181.53 641.56,-183.82 644.07,-186.11 646.32,-188.42 648.3,-190.72 650,-193.01 651.43,-195.29 652.57,-197.54 653.42,-199.78 653.98,-201.98 654.24,-204.15 654.2,-206.29 653.85,-208.38 653.2,-210.43 652.23,-212.43 650.95,-214.38 649.36,-216.29 647.46,-218.14 645.24,-219.94 642.7,-221.68 639.86,-223.36 636.7,-224.99 633.24,-226.56 629.47,-228.07 625.41,-229.52 621.06,-230.91 616.43,-232.24 611.53,-233.51 606.36,-234.71 600.94,-235.84 595.28,-236.92 589.39,-237.92 583.29,-238.86 576.99,-239.72 570.52,-240.51 563.88,-241.23 557.1,-241.87 550.19,-242.43 543.18,-242.9 536.09,-243.29 528.94,-243.6 521.75,-243.81 514.55,-243.92 507.36,-243.94 500.2,-243.86 493.1,-243.68 486.08,-243.39 479.17,-242.99 472.39,-242.49 465.76,-241.86 459.32,-241.12 453.07,-240.27 447.05,-239.3 441.27,-238.2 435.76,-236.99 430.53,-235.66 425.61,-234.21 421.01,-232.65 416.75,-230.96 412.84,-229.17 409.29,-227.27 406.12,-225.26 403.35,-223.14 400.96,-220.93 398.98,-218.63 397.41,-216.25 396.26,-213.79 395.52,-211.25 395.19,-208.66 395.28,-206.01 395.78,-203.32 396.68,-200.59 397.99,-197.84 399.69,-195.07 401.78,-192.3 404.23,-189.53 407.05,-186.78 410.22,-184.06 413.73,-181.38 417.56,-178.75 421.69,-176.19"/>
<text xml:space="preserve" text-anchor="middle" x="529.81" y="-195.36" font-family="sans-serif" font-size="16.00">QualityAndDisputes</text>
</g>
<!-- WorkOrchestration&#45;&gt;QualityAndDisputes -->
<g id="edge3" class="edge">
<title>WorkOrchestration&#45;&gt;QualityAndDisputes</title>
<path fill="none" stroke="black" stroke-width="2" d="M735.13,-340.32C655.07,-330.93 563.3,-313.94 536.81,-284.21 527.21,-273.44 524.05,-258.46 523.75,-244.19"/>
<text xml:space="preserve" text-anchor="middle" x="686.81" y="-272.81" font-family="sans-serif" font-size="12.00"> &#160;&#160;&#160;&#160;&#160;&#160;&#160;&#160;&#160;&#160;&#160;&#160;&#160;&#160;&#160;&#160;&#160;&#160;&#160;&#160;&#160;&#160;&#160;&#160;&#160;&#160;&#160;&#160;&#160;&#160;&#160;&#160;&#160;&#160;&#160;&#160;&#160;&#160;&#160;&#160;&#160;&#160;&#160;&#160;&#160;&#160;&#160;&#160;&#160;&#160;&#160;&#160;&#160;&#160;&#160;&#160;&#160;&#160;&#160;&#160;&#160;&#160;&#160;&#160;&#160;&#160;&#160;&#160;&#160;&#160;&#160;&#160;&#160;&#160;&#160;&#160;&#160;&#160;&#160;</text>
<polygon fill="white" stroke="none" points="503.12,-233.32 503.12,-255.07 517.37,-255.07 517.37,-233.32 503.12,-233.32"/>
<polyline fill="none" stroke="black" points="517.37,-233.32 517.37,-255.07"/>
<text xml:space="preserve" text-anchor="start" x="506.12" y="-239.32" font-family="sans-serif" font-size="12.00">D</text>
<polygon fill="white" stroke="none" points="517.37,-233.32 517.37,-255.07 544.37,-255.07 544.37,-233.32 517.37,-233.32"/>
<polygon fill="none" stroke="black" points="517.37,-233.32 517.37,-255.07 544.37,-255.07 544.37,-233.32 517.37,-233.32"/>
<text xml:space="preserve" text-anchor="start" x="520.37" y="-239.32" font-family="sans-serif" font-size="12.00">ACL</text>
<polygon fill="white" stroke="none" points="703.63,-329.45 703.63,-351.2 717.13,-351.2 717.13,-329.45 703.63,-329.45"/>
<polyline fill="none" stroke="black" points="717.13,-329.45 717.13,-351.2"/>
<text xml:space="preserve" text-anchor="start" x="706.63" y="-335.45" font-family="sans-serif" font-size="12.00">U</text>
<polygon fill="white" stroke="none" points="717.13,-329.45 717.13,-351.2 766.63,-351.2 766.63,-329.45 717.13,-329.45"/>
<polygon fill="none" stroke="black" points="717.13,-329.45 717.13,-351.2 766.63,-351.2 766.63,-329.45 717.13,-329.45"/>
<text xml:space="preserve" text-anchor="start" x="720.13" y="-335.45" font-family="sans-serif" font-size="12.00">OHS, PL</text>
</g>
<!-- RecurringServices -->
<g id="node5" class="node">
<title>RecurringServices</title>
<polygon fill="none" stroke="black" stroke-width="2" points="1224.9,-220.4 1221.3,-217.79 1218.02,-215.13 1215.08,-212.45 1212.49,-209.76 1210.25,-207.05 1208.39,-204.35 1206.91,-201.66 1205.81,-198.99 1205.11,-196.36 1204.81,-193.76 1204.91,-191.22 1205.42,-188.73 1206.33,-186.3 1207.64,-183.95 1209.35,-181.68 1211.45,-179.49 1213.94,-177.39 1216.81,-175.38 1220.04,-173.48 1223.63,-171.67 1227.57,-169.97 1231.83,-168.38 1236.4,-166.89 1241.27,-165.52 1246.41,-164.25 1251.81,-163.1 1257.45,-162.06 1263.3,-161.13 1269.34,-160.3 1275.56,-159.59 1281.92,-158.98 1288.41,-158.48 1295,-158.08 1301.67,-157.78 1308.4,-157.58 1315.15,-157.48 1321.92,-157.47 1328.67,-157.55 1335.39,-157.73 1342.05,-157.99 1348.63,-158.33 1355.12,-158.76 1361.49,-159.27 1367.73,-159.87 1373.81,-160.53 1379.73,-161.28 1385.46,-162.1 1391,-162.99 1396.33,-163.96 1401.44,-165 1406.32,-166.11 1410.96,-167.3 1415.35,-168.55 1419.48,-169.87 1423.35,-171.26 1426.95,-172.72 1430.28,-174.24 1433.33,-175.83 1436.11,-177.49 1438.6,-179.21 1440.81,-181 1442.74,-182.85 1444.39,-184.75 1445.76,-186.72 1446.85,-188.74 1447.67,-190.82 1448.2,-192.94 1448.47,-195.11 1448.46,-197.32 1448.18,-199.57 1447.65,-201.86 1446.85,-204.17 1445.79,-206.51 1444.48,-208.86 1442.91,-211.22 1441.1,-213.58 1439.05,-215.95 1436.76,-218.29 1434.23,-220.62 1431.47,-222.93 1428.49,-225.19 1425.28,-227.42 1421.85,-229.58 1418.21,-231.69 1414.36,-233.73 1410.3,-235.69 1406.05,-237.55 1401.61,-239.33 1396.98,-241 1392.17,-242.55 1387.19,-243.98 1382.05,-245.29 1376.75,-246.46 1371.3,-247.49 1365.72,-248.38 1360.02,-249.11 1354.2,-249.68 1348.28,-250.1 1342.27,-250.34 1336.18,-250.43 1330.04,-250.34 1323.85,-250.09 1317.62,-249.67 1311.39,-249.08 1305.16,-248.32 1298.94,-247.4 1292.77,-246.32 1286.66,-245.08 1280.62,-243.69 1274.68,-242.15 1268.85,-240.47 1263.16,-238.66 1257.63,-236.73 1252.27,-234.67 1247.11,-232.51 1242.16,-230.25 1237.45,-227.9 1232.99,-225.46 1228.8,-222.96 1224.9,-220.4"/>
<text xml:space="preserve" text-anchor="middle" x="1332.81" y="-195.36" font-family="sans-serif" font-size="16.00">RecurringServices</text>
</g>
<!-- WorkOrchestration&#45;&gt;RecurringServices -->
<g id="edge4" class="edge">
<title>WorkOrchestration&#45;&gt;RecurringServices</title>
<path fill="none" stroke="black" stroke-width="2" d="M980.45,-330.59C1032.1,-319.64 1093.46,-304.21 1146.81,-284.21 1160.91,-278.93 1163.21,-274.94 1176.81,-268.46 1200.89,-256.99 1227.44,-245.25 1251.71,-234.87"/>
<text xml:space="preserve" text-anchor="middle" x="1326.81" y="-272.81" font-family="sans-serif" font-size="12.00"> &#160;&#160;&#160;&#160;&#160;&#160;&#160;&#160;&#160;&#160;&#160;&#160;&#160;&#160;&#160;&#160;&#160;&#160;&#160;&#160;&#160;&#160;&#160;&#160;&#160;&#160;&#160;&#160;&#160;&#160;&#160;&#160;&#160;&#160;&#160;&#160;&#160;&#160;&#160;&#160;&#160;&#160;&#160;&#160;&#160;&#160;&#160;&#160;&#160;&#160;&#160;&#160;&#160;&#160;&#160;&#160;&#160;&#160;&#160;&#160;&#160;&#160;&#160;&#160;&#160;&#160;&#160;&#160;&#160;&#160;&#160;&#160;&#160;&#160;&#160;&#160;&#160;&#160;&#160;</text>
<polygon fill="white" stroke="none" points="1231.08,-223.99 1231.08,-245.74 1245.33,-245.74 1245.33,-223.99 1231.08,-223.99"/>
<polyline fill="none" stroke="black" points="1245.33,-223.99 1245.33,-245.74"/>
<text xml:space="preserve" text-anchor="start" x="1234.08" y="-229.99" font-family="sans-serif" font-size="12.00">D</text>
<polygon fill="white" stroke="none" points="1245.33,-223.99 1245.33,-245.74 1272.33,-245.74 1272.33,-223.99 1245.33,-223.99"/>
<polygon fill="none" stroke="black" points="1245.33,-223.99 1245.33,-245.74 1272.33,-245.74 1272.33,-223.99 1245.33,-223.99"/>
<text xml:space="preserve" text-anchor="start" x="1248.33" y="-229.99" font-family="sans-serif" font-size="12.00">ACL</text>
<polygon fill="white" stroke="none" points="948.95,-319.72 948.95,-341.47 962.45,-341.47 962.45,-319.72 948.95,-319.72"/>
<polyline fill="none" stroke="black" points="962.45,-319.72 962.45,-341.47"/>
<text xml:space="preserve" text-anchor="start" x="951.95" y="-325.72" font-family="sans-serif" font-size="12.00">U</text>
<polygon fill="white" stroke="none" points="962.45,-319.72 962.45,-341.47 1011.95,-341.47 1011.95,-319.72 962.45,-319.72"/>
<polygon fill="none" stroke="black" points="962.45,-319.72 962.45,-341.47 1011.95,-341.47 1011.95,-319.72 962.45,-319.72"/>
<text xml:space="preserve" text-anchor="start" x="965.45" y="-325.72" font-family="sans-serif" font-size="12.00">OHS, PL</text>
</g>
<!-- CreditScoring -->
<g id="node6" class="node">
<title>CreditScoring</title>
<polygon fill="none" stroke="black" stroke-width="2" points="718.9,-197.58 719.21,-194.65 719.79,-191.74 720.64,-188.87 721.75,-186.05 723.13,-183.29 724.76,-180.6 726.65,-177.99 728.79,-175.48 731.17,-173.06 733.79,-170.76 736.64,-168.58 739.71,-166.52 742.99,-164.59 746.49,-162.79 750.17,-161.15 754.04,-159.64 758.09,-158.29 762.3,-157.09 766.67,-156.04 771.17,-155.15 775.8,-154.41 780.54,-153.82 785.39,-153.39 790.32,-153.11 795.33,-152.97 800.4,-152.98 805.51,-153.13 810.66,-153.42 815.82,-153.83 820.99,-154.37 826.14,-155.04 831.26,-155.81 836.35,-156.7 841.38,-157.68 846.34,-158.77 851.22,-159.94 856,-161.19 860.68,-162.53 865.23,-163.93 869.64,-165.4 873.91,-166.93 878.01,-168.51 881.95,-170.14 885.71,-171.82 889.27,-173.53 892.63,-175.28 895.78,-177.07 898.72,-178.87 901.42,-180.71 903.89,-182.56 906.12,-184.44 908.1,-186.32 909.83,-188.23 911.31,-190.14 912.52,-192.07 913.47,-194 914.15,-195.95 914.57,-197.9 914.72,-199.85 914.6,-201.81 914.21,-203.77 913.56,-205.73 912.64,-207.69 911.47,-209.64 910.03,-211.6 908.34,-213.55 906.4,-215.49 904.22,-217.41 901.8,-219.33 899.15,-221.23 896.28,-223.11 893.19,-224.96 889.9,-226.78 886.4,-228.58 882.73,-230.33 878.87,-232.04 874.84,-233.7 870.66,-235.31 866.34,-236.85 861.88,-238.33 857.3,-239.74 852.61,-241.06 847.83,-242.3 842.96,-243.45 838.02,-244.49 833.03,-245.43 827.99,-246.26 822.92,-246.96 817.83,-247.54 812.74,-247.99 807.66,-248.3 802.61,-248.47 797.59,-248.5 792.63,-248.38 787.73,-248.1 782.91,-247.67 778.17,-247.08 773.55,-246.33 769.03,-245.42 764.65,-244.36 760.41,-243.14 756.31,-241.76 752.39,-240.24 748.63,-238.56 745.06,-236.74 741.68,-234.79 738.51,-232.7 735.54,-230.48 732.8,-228.15 730.29,-225.71 728.01,-223.17 725.97,-220.54 724.18,-217.83 722.64,-215.05 721.35,-212.22 720.33,-209.33 719.57,-206.42 719.08,-203.48 718.86,-200.53 718.9,-197.58"/>
<text xml:space="preserve" text-anchor="middle" x="816.81" y="-195.36" font-family="sans-serif" font-size="16.00">CreditScoring</text>
</g>
<!-- WorkOrchestration&#45;&gt;CreditScoring -->
<g id="edge5" class="edge">
<title>WorkOrchestration&#45;&gt;CreditScoring</title>
<path fill="none" stroke="black" stroke-width="2" d="M851.67,-305.69C845.35,-286.78 838.02,-264.87 831.72,-246.03"/>
<text xml:space="preserve" text-anchor="middle" x="993.31" y="-272.81" font-family="sans-serif" font-size="12.00"> &#160;&#160;&#160;&#160;&#160;&#160;&#160;&#160;&#160;&#160;&#160;&#160;&#160;&#160;&#160;&#160;&#160;&#160;&#160;&#160;&#160;&#160;&#160;&#160;&#160;&#160;&#160;&#160;&#160;&#160;&#160;&#160;&#160;&#160;&#160;&#160;&#160;&#160;&#160;&#160;&#160;&#160;&#160;&#160;&#160;&#160;&#160;&#160;&#160;&#160;&#160;&#160;&#160;&#160;&#160;&#160;&#160;&#160;&#160;&#160;&#160;&#160;&#160;&#160;&#160;&#160;&#160;&#160;&#160;&#160;&#160;&#160;&#160;&#160;&#160;&#160;&#160;&#160;&#160;</text>
<polygon fill="white" stroke="none" points="811.1,-235.16 811.1,-256.91 825.35,-256.91 825.35,-235.16 811.1,-235.16"/>
<polyline fill="none" stroke="black" points="825.35,-235.16 825.35,-256.91"/>
<text xml:space="preserve" text-anchor="start" x="814.1" y="-241.16" font-family="sans-serif" font-size="12.00">D</text>
<polygon fill="white" stroke="none" points="825.35,-235.16 825.35,-256.91 852.35,-256.91 852.35,-235.16 825.35,-235.16"/>
<polygon fill="none" stroke="black" points="825.35,-235.16 825.35,-256.91 852.35,-256.91 852.35,-235.16 825.35,-235.16"/>
<text xml:space="preserve" text-anchor="start" x="828.35" y="-241.16" font-family="sans-serif" font-size="12.00">ACL</text>
<polygon fill="white" stroke="none" points="820.17,-294.81 820.17,-316.56 833.67,-316.56 833.67,-294.81 820.17,-294.81"/>
<polyline fill="none" stroke="black" points="833.67,-294.81 833.67,-316.56"/>
<text xml:space="preserve" text-anchor="start" x="823.17" y="-300.81" font-family="sans-serif" font-size="12.00">U</text>
<polygon fill="white" stroke="none" points="833.67,-294.81 833.67,-316.56 883.17,-316.56 883.17,-294.81 833.67,-294.81"/>
<polygon fill="none" stroke="black" points="833.67,-294.81 833.67,-316.56 883.17,-316.56 883.17,-294.81 833.67,-294.81"/>
<text xml:space="preserve" text-anchor="start" x="836.67" y="-300.81" font-family="sans-serif" font-size="12.00">OHS, PL</text>
</g>
<!-- MicroLending -->
<g id="node7" class="node">
<title>MicroLending</title>
<polygon fill="none" stroke="black" stroke-width="2" points="405.62,-15.07 410.42,-13.13 415.36,-11.31 420.43,-9.59 425.6,-8 430.86,-6.54 436.18,-5.21 441.56,-4.02 446.96,-2.98 452.37,-2.08 457.78,-1.35 463.16,-0.77 468.5,-0.35 473.78,-0.09 478.99,0 484.11,-0.07 489.13,-0.3 494.04,-0.7 498.83,-1.25 503.48,-1.96 507.98,-2.82 512.33,-3.84 516.52,-5 520.55,-6.29 524.4,-7.72 528.07,-9.28 531.56,-10.96 534.86,-12.75 537.96,-14.64 540.88,-16.63 543.6,-18.71 546.13,-20.87 548.46,-23.1 550.59,-25.39 552.53,-27.73 554.27,-30.12 555.81,-32.54 557.15,-34.99 558.3,-37.46 559.25,-39.93 560.01,-42.41 560.57,-44.88 560.94,-47.33 561.11,-49.76 561.09,-52.17 560.87,-54.53 560.46,-56.86 559.86,-59.13 559.06,-61.36 558.07,-63.52 556.88,-65.62 555.5,-67.66 553.92,-69.62 552.14,-71.52 550.17,-73.33 548,-75.07 545.63,-76.73 543.08,-78.3 540.32,-79.79 537.37,-81.2 534.24,-82.52 530.91,-83.75 527.4,-84.9 523.7,-85.96 519.83,-86.93 515.79,-87.82 511.58,-88.61 507.21,-89.32 502.7,-89.94 498.03,-90.47 493.24,-90.92 488.32,-91.28 483.3,-91.55 478.17,-91.73 472.96,-91.82 467.69,-91.83 462.35,-91.74 456.98,-91.57 451.58,-91.31 446.18,-90.96 440.79,-90.51 435.43,-89.98 430.12,-89.36 424.89,-88.64 419.73,-87.83 414.69,-86.93 409.77,-85.93 405,-84.84 400.4,-83.66 395.98,-82.39 391.76,-81.02 387.77,-79.57 384.01,-78.02 380.5,-76.38 377.27,-74.66 374.31,-72.85 371.65,-70.96 369.3,-68.99 367.27,-66.95 365.57,-64.83 364.2,-62.65 363.18,-60.4 362.5,-58.1 362.17,-55.74 362.19,-53.34 362.56,-50.9 363.28,-48.42 364.35,-45.93 365.76,-43.41 367.5,-40.89 369.58,-38.36 371.97,-35.85 374.66,-33.35 377.65,-30.88 380.93,-28.44 384.47,-26.05 388.26,-23.71 392.29,-21.43 396.54,-19.23 400.99,-17.1 405.62,-15.07"/>
<text xml:space="preserve" text-anchor="middle" x="468.81" y="-44.26" font-family="sans-serif" font-size="16.00">MicroLending</text>
</g>
<!-- CreditScoring&#45;&gt;MicroLending -->
<g id="edge6" class="edge">
<title>CreditScoring&#45;&gt;MicroLending</title>
<path fill="none" stroke="black" stroke-width="2" d="M739.57,-166.35C679.8,-140.74 597.69,-105.55 539.61,-80.67"/>
<text xml:space="preserve" text-anchor="middle" x="803.24" y="-121.01" font-family="sans-serif" font-size="12.00"> &#160;&#160;&#160;&#160;&#160;&#160;&#160;&#160;&#160;&#160;&#160;&#160;&#160;&#160;&#160;&#160;&#160;&#160;&#160;&#160;&#160;&#160;&#160;&#160;&#160;&#160;&#160;&#160;&#160;&#160;&#160;&#160;&#160;&#160;&#160;&#160;&#160;&#160;&#160;&#160;&#160;&#160;&#160;&#160;&#160;&#160;&#160;&#160;&#160;&#160;&#160;&#160;&#160;&#160;&#160;&#160;&#160;&#160;&#160;&#160;&#160;&#160;&#160;&#160;&#160;&#160;&#160;&#160;&#160;&#160;&#160;&#160;&#160;&#160;&#160;&#160;&#160;&#160;&#160;</text>
<polygon fill="white" stroke="none" points="533.48,-70.79 533.48,-90.54 545.73,-90.54 545.73,-70.79 533.48,-70.79"/>
<text xml:space="preserve" text-anchor="start" x="535.48" y="-75.79" font-family="sans-serif" font-size="12.00">D</text>
<polygon fill="white" stroke="none" points="708.07,-155.47 708.07,-177.22 721.57,-177.22 721.57,-155.47 708.07,-155.47"/>
<polyline fill="none" stroke="black" points="721.57,-155.47 721.57,-177.22"/>
<text xml:space="preserve" text-anchor="start" x="711.07" y="-161.47" font-family="sans-serif" font-size="12.00">U</text>
<polygon fill="white" stroke="none" points="721.57,-155.47 721.57,-177.22 771.07,-177.22 771.07,-155.47 721.57,-155.47"/>
<polygon fill="none" stroke="black" points="721.57,-155.47 721.57,-177.22 771.07,-177.22 771.07,-155.47 721.57,-155.47"/>
<text xml:space="preserve" text-anchor="start" x="724.57" y="-161.47" font-family="sans-serif" font-size="12.00">OHS, PL</text>
</g>
<!-- MarketplaceIntake -->
<g id="node8" class="node">
<title>MarketplaceIntake</title>
<polygon fill="none" stroke="black" stroke-width="2" points="650.32,-601.09 653.68,-598.43 657.33,-595.83 661.24,-593.32 665.41,-590.89 669.82,-588.57 674.46,-586.36 679.3,-584.26 684.35,-582.3 689.57,-580.47 694.95,-578.78 700.49,-577.25 706.15,-575.86 711.92,-574.64 717.8,-573.58 723.75,-572.68 729.77,-571.95 735.84,-571.39 741.94,-571 748.07,-570.78 754.19,-570.72 760.31,-570.83 766.4,-571.11 772.46,-571.54 778.46,-572.12 784.4,-572.86 790.26,-573.74 796.03,-574.75 801.7,-575.9 807.25,-577.17 812.68,-578.56 817.97,-580.06 823.12,-581.66 828.1,-583.35 832.92,-585.13 837.56,-586.99 842.02,-588.91 846.28,-590.9 850.33,-592.93 854.16,-595.02 857.78,-597.14 861.16,-599.29 864.3,-601.46 867.19,-603.65 869.83,-605.85 872.21,-608.05 874.31,-610.25 876.15,-612.44 877.69,-614.62 878.95,-616.78 879.92,-618.93 880.59,-621.05 880.96,-623.14 881.02,-625.2 880.77,-627.23 880.21,-629.22 879.33,-631.18 878.14,-633.1 876.64,-634.98 874.81,-636.82 872.68,-638.61 870.23,-640.36 867.47,-642.07 864.41,-643.73 861.04,-645.34 857.38,-646.9 853.44,-648.42 849.21,-649.89 844.71,-651.3 839.96,-652.66 834.95,-653.96 829.7,-655.21 824.24,-656.4 818.56,-657.53 812.69,-658.59 806.63,-659.58 800.42,-660.51 794.06,-661.36 787.58,-662.13 780.99,-662.82 774.32,-663.43 767.58,-663.94 760.8,-664.37 753.99,-664.69 747.18,-664.92 740.4,-665.04 733.65,-665.05 726.97,-664.95 720.38,-664.74 713.9,-664.4 707.54,-663.94 701.34,-663.36 695.31,-662.65 689.48,-661.81 683.85,-660.85 678.46,-659.75 673.32,-658.52 668.44,-657.16 663.84,-655.68 659.54,-654.06 655.55,-652.32 651.88,-650.46 648.55,-648.48 645.55,-646.39 642.92,-644.2 640.64,-641.9 638.72,-639.5 637.18,-637.02 636.01,-634.46 635.21,-631.82 634.79,-629.13 634.74,-626.38 635.07,-623.6 635.76,-620.78 636.81,-617.94 638.22,-615.09 639.98,-612.24 642.08,-609.4 644.51,-606.59 647.26,-603.82 650.32,-601.09"/>
<text xml:space="preserve" text-anchor="middle" x="760.81" y="-615.48" font-family="sans-serif" font-size="16.00">MarketplaceIntake</text>
</g>
<!-- MarketplaceIntake&#45;&gt;WorkOrchestration -->
<g id="edge7" class="edge">
<title>MarketplaceIntake&#45;&gt;WorkOrchestration</title>
<path fill="none" stroke="black" stroke-width="2" d="M752.5,-570.61C748.9,-536.38 748.58,-490.37 764.56,-453.44 775.13,-429 794.73,-407.43 813.96,-390.61"/>
<text xml:space="preserve" text-anchor="middle" x="813.68" y="-499.56" font-family="sans-serif" font-size="12.00">Customer/Supplier</text>
<polygon fill="white" stroke="none" points="807.84,-380.74 807.84,-400.49 820.09,-400.49 820.09,-380.74 807.84,-380.74"/>
<text xml:space="preserve" text-anchor="start" x="809.84" y="-385.74" font-family="sans-serif" font-size="12.00">D</text>
<polygon fill="white" stroke="none" points="746.75,-560.73 746.75,-580.48 758.25,-580.48 758.25,-560.73 746.75,-560.73"/>
<text xml:space="preserve" text-anchor="start" x="748.75" y="-565.73" font-family="sans-serif" font-size="12.00">U</text>
</g>
<!-- PartnerRules -->
<g id="node9" class="node">
<title>PartnerRules</title>
<polygon fill="none" stroke="black" stroke-width="2" points="545.01,-610.93 546.41,-613.79 547.56,-616.66 548.44,-619.53 549.04,-622.38 549.37,-625.2 549.41,-627.99 549.17,-630.74 548.65,-633.43 547.84,-636.05 546.76,-638.59 545.39,-641.05 543.74,-643.42 541.81,-645.69 539.62,-647.85 537.17,-649.9 534.46,-651.84 531.5,-653.65 528.3,-655.34 524.87,-656.9 521.22,-658.32 517.37,-659.62 513.32,-660.78 509.08,-661.81 504.69,-662.7 500.13,-663.47 495.44,-664.1 490.62,-664.6 485.7,-664.97 480.69,-665.23 475.6,-665.36 470.45,-665.37 465.26,-665.27 460.04,-665.07 454.82,-664.75 449.6,-664.34 444.41,-663.83 439.27,-663.23 434.17,-662.54 429.15,-661.76 424.22,-660.91 419.39,-659.98 414.67,-658.97 410.09,-657.9 405.65,-656.77 401.36,-655.57 397.24,-654.31 393.29,-652.99 389.53,-651.63 385.97,-650.21 382.61,-648.74 379.47,-647.22 376.54,-645.65 373.84,-644.04 371.37,-642.38 369.13,-640.69 367.13,-638.95 365.38,-637.17 363.86,-635.35 362.6,-633.49 361.57,-631.59 360.8,-629.66 360.27,-627.69 359.98,-625.69 359.94,-623.66 360.14,-621.6 360.57,-619.51 361.24,-617.4 362.14,-615.27 363.27,-613.13 364.63,-610.97 366.2,-608.8 367.98,-606.63 369.97,-604.46 372.16,-602.3 374.55,-600.15 377.13,-598.01 379.89,-595.91 382.82,-593.84 385.93,-591.8 389.19,-589.82 392.62,-587.89 396.19,-586.02 399.89,-584.23 403.73,-582.51 407.7,-580.88 411.77,-579.35 415.96,-577.92 420.24,-576.6 424.6,-575.4 429.05,-574.33 433.57,-573.39 438.14,-572.58 442.77,-571.93 447.43,-571.42 452.12,-571.06 456.83,-570.87 461.55,-570.84 466.26,-570.97 470.96,-571.27 475.63,-571.74 480.26,-572.38 484.84,-573.18 489.35,-574.16 493.8,-575.29 498.15,-576.59 502.41,-578.05 506.55,-579.65 510.57,-581.41 514.46,-583.3 518.2,-585.33 521.78,-587.48 525.18,-589.75 528.41,-592.13 531.44,-594.61 534.27,-597.17 536.88,-599.81 539.27,-602.52 541.43,-605.28 543.34,-608.09 545.01,-610.93"/>
<text xml:space="preserve" text-anchor="middle" x="452.81" y="-615.48" font-family="sans-serif" font-size="16.00">PartnerRules</text>
</g>
<!-- PartnerRules&#45;&gt;WorkOrchestration -->
<g id="edge8" class="edge">
<title>PartnerRules&#45;&gt;WorkOrchestration</title>
<path fill="none" stroke="black" stroke-width="2" d="M436.08,-572.59C426.37,-536.23 420.62,-486.63 446.81,-453.44 482.48,-408.23 626.59,-381.09 736.14,-366.62"/>
<text xml:space="preserve" text-anchor="middle" x="596.81" y="-499.56" font-family="sans-serif" font-size="12.00"> &#160;&#160;&#160;&#160;&#160;&#160;&#160;&#160;&#160;&#160;&#160;&#160;&#160;&#160;&#160;&#160;&#160;&#160;&#160;&#160;&#160;&#160;&#160;&#160;&#160;&#160;&#160;&#160;&#160;&#160;&#160;&#160;&#160;&#160;&#160;&#160;&#160;&#160;&#160;&#160;&#160;&#160;&#160;&#160;&#160;&#160;&#160;&#160;&#160;&#160;&#160;&#160;&#160;&#160;&#160;&#160;&#160;&#160;&#160;&#160;&#160;&#160;&#160;&#160;&#160;&#160;&#160;&#160;&#160;&#160;&#160;&#160;&#160;&#160;&#160;&#160;&#160;&#160;&#160;</text>
<polygon fill="white" stroke="none" points="730.01,-356.74 730.01,-376.49 742.26,-376.49 742.26,-356.74 730.01,-356.74"/>
<text xml:space="preserve" text-anchor="start" x="732.01" y="-361.74" font-family="sans-serif" font-size="12.00">D</text>
<polygon fill="white" stroke="none" points="404.58,-561.72 404.58,-583.47 418.08,-583.47 418.08,-561.72 404.58,-561.72"/>
<polyline fill="none" stroke="black" points="418.08,-561.72 418.08,-583.47"/>
<text xml:space="preserve" text-anchor="start" x="407.58" y="-567.72" font-family="sans-serif" font-size="12.00">U</text>
<polygon fill="white" stroke="none" points="418.08,-561.72 418.08,-583.47 467.58,-583.47 467.58,-561.72 418.08,-561.72"/>
<polygon fill="none" stroke="black" points="418.08,-561.72 418.08,-583.47 467.58,-583.47 467.58,-561.72 418.08,-561.72"/>
<text xml:space="preserve" text-anchor="start" x="421.08" y="-567.72" font-family="sans-serif" font-size="12.00">OHS, PL</text>
</g>
<!-- Payments -->
<g id="node10" class="node">
<title>Payments</title>
<polygon fill="none" stroke="black" stroke-width="2" points="18.65,-376.01 15.8,-373.56 13.16,-371.05 10.73,-368.5 8.53,-365.92 6.56,-363.31 4.84,-360.7 3.37,-358.08 2.16,-355.47 1.21,-352.88 0.53,-350.31 0.13,-347.77 0,-345.28 0.15,-342.83 0.58,-340.44 1.28,-338.11 2.26,-335.85 3.5,-333.67 5.01,-331.56 6.79,-329.54 8.81,-327.6 11.08,-325.76 13.58,-324.01 16.31,-322.35 19.25,-320.8 22.39,-319.34 25.73,-317.98 29.23,-316.72 32.9,-315.57 36.72,-314.51 40.67,-313.56 44.74,-312.71 48.9,-311.96 53.16,-311.3 57.48,-310.74 61.86,-310.28 66.28,-309.92 70.72,-309.65 75.17,-309.47 79.61,-309.38 84.03,-309.37 88.42,-309.46 92.75,-309.64 97.03,-309.9 101.23,-310.24 105.35,-310.67 109.38,-311.18 113.29,-311.77 117.1,-312.44 120.77,-313.2 124.32,-314.03 127.73,-314.95 130.99,-315.94 134.11,-317.02 137.06,-318.17 139.86,-319.4 142.5,-320.71 144.96,-322.1 147.26,-323.56 149.39,-325.1 151.35,-326.72 153.13,-328.41 154.74,-330.17 156.17,-332 157.44,-333.9 158.53,-335.87 159.44,-337.9 160.19,-339.99 160.76,-342.14 161.17,-344.34 161.4,-346.59 161.47,-348.88 161.37,-351.22 161.11,-353.58 160.68,-355.97 160.09,-358.38 159.34,-360.8 158.43,-363.23 157.36,-365.65 156.13,-368.07 154.75,-370.47 153.2,-372.84 151.51,-375.17 149.66,-377.46 147.66,-379.7 145.5,-381.88 143.2,-383.98 140.76,-386.01 138.17,-387.94 135.44,-389.78 132.57,-391.52 129.56,-393.14 126.43,-394.64 123.16,-396.01 119.78,-397.25 116.28,-398.34 112.67,-399.29 108.96,-400.09 105.14,-400.73 101.24,-401.22 97.26,-401.54 93.21,-401.69 89.1,-401.68 84.94,-401.5 80.73,-401.16 76.5,-400.65 72.25,-399.98 68,-399.14 63.76,-398.15 59.53,-397 55.35,-395.7 51.21,-394.26 47.15,-392.69 43.15,-390.98 39.26,-389.14 35.47,-387.2 31.8,-385.14 28.27,-382.98 24.89,-380.74 21.68,-378.41 18.65,-376.01"/>
<text xml:space="preserve" text-anchor="middle" x="85.81" y="-346.88" font-family="sans-serif" font-size="16.00">Payments</text>
</g>
<!-- Payments&#45;&gt;RecurringServices -->
<g id="edge10" class="edge">
<title>Payments&#45;&gt;RecurringServices</title>
<path fill="none" stroke="black" stroke-width="2" d="M160.01,-338.1C221.49,-326.6 310.79,-307.9 386.81,-284.21 404.56,-278.68 407.38,-272.36 425.56,-268.46 533.89,-245.25 813.35,-259.06 923.81,-250.46 1024.34,-242.64 1138.2,-228.56 1220.22,-217.49"/>
<text xml:space="preserve" text-anchor="middle" x="474.68" y="-272.81" font-family="sans-serif" font-size="12.00">Customer/Supplier</text>
<polygon fill="white" stroke="none" points="1214.09,-207.62 1214.09,-227.37 1226.34,-227.37 1226.34,-207.62 1214.09,-207.62"/>
<text xml:space="preserve" text-anchor="start" x="1216.09" y="-212.62" font-family="sans-serif" font-size="12.00">D</text>
<polygon fill="white" stroke="none" points="154.26,-328.23 154.26,-347.98 165.76,-347.98 165.76,-328.23 154.26,-328.23"/>
<text xml:space="preserve" text-anchor="start" x="156.26" y="-333.23" font-family="sans-serif" font-size="12.00">U</text>
</g>
<!-- ProviderWallet -->
<g id="node11" class="node">
<title>ProviderWallet</title>
<polygon fill="none" stroke="black" stroke-width="2" points="267.23,-222.68 263.99,-225.25 260.53,-227.75 256.85,-230.16 252.97,-232.47 248.9,-234.67 244.67,-236.76 240.27,-238.72 235.74,-240.55 231.07,-242.25 226.29,-243.79 221.41,-245.18 216.45,-246.42 211.42,-247.49 206.33,-248.4 201.2,-249.14 196.04,-249.71 190.87,-250.12 185.7,-250.35 180.53,-250.42 175.39,-250.31 170.28,-250.05 165.23,-249.62 160.22,-249.04 155.29,-248.3 150.43,-247.41 145.67,-246.39 141,-245.23 136.43,-243.94 131.98,-242.52 127.66,-241 123.47,-239.37 119.41,-237.64 115.51,-235.83 111.75,-233.93 108.16,-231.96 104.74,-229.92 101.49,-227.83 98.42,-225.7 95.54,-223.52 92.86,-221.31 90.37,-219.08 88.08,-216.84 86.01,-214.58 84.15,-212.32 82.51,-210.06 81.1,-207.81 79.92,-205.58 78.97,-203.36 78.26,-201.17 77.79,-199.01 77.57,-196.88 77.59,-194.78 77.87,-192.72 78.4,-190.71 79.19,-188.73 80.24,-186.8 81.54,-184.92 83.1,-183.08 84.92,-181.3 87,-179.56 89.33,-177.88 91.91,-176.25 94.74,-174.67 97.82,-173.15 101.13,-171.68 104.68,-170.27 108.45,-168.91 112.44,-167.62 116.64,-166.38 121.05,-165.21 125.64,-164.1 130.41,-163.05 135.34,-162.07 140.43,-161.17 145.66,-160.33 151.01,-159.57 156.47,-158.88 162.02,-158.28 167.65,-157.76 173.33,-157.32 179.06,-156.98 184.81,-156.73 190.56,-156.58 196.3,-156.53 202,-156.58 207.65,-156.74 213.23,-157.01 218.72,-157.4 224.09,-157.9 229.34,-158.52 234.44,-159.25 239.38,-160.12 244.13,-161.1 248.69,-162.21 253.03,-163.44 257.14,-164.8 261.01,-166.28 264.62,-167.88 267.97,-169.6 271.03,-171.44 273.81,-173.39 276.29,-175.45 278.46,-177.61 280.32,-179.87 281.86,-182.22 283.08,-184.66 283.97,-187.17 284.55,-189.76 284.79,-192.41 284.72,-195.1 284.32,-197.85 283.6,-200.62 282.57,-203.41 281.24,-206.22 279.6,-209.03 277.67,-211.82 275.46,-214.6 272.98,-217.34 270.23,-220.03 267.23,-222.68"/>
<text xml:space="preserve" text-anchor="middle" x="177.81" y="-195.36" font-family="sans-serif" font-size="16.00">ProviderWallet</text>
</g>
<!-- Payments&#45;&gt;ProviderWallet -->
<g id="edge9" class="edge">
<title>Payments&#45;&gt;ProviderWallet</title>
<path fill="none" stroke="black" stroke-width="2" d="M79.14,-308.9C78.82,-295.35 80.53,-280.7 86.81,-268.46 93.35,-255.72 103.55,-244.79 114.81,-235.68"/>
<text xml:space="preserve" text-anchor="middle" x="236.81" y="-272.81" font-family="sans-serif" font-size="12.00"> &#160;&#160;&#160;&#160;&#160;&#160;&#160;&#160;&#160;&#160;&#160;&#160;&#160;&#160;&#160;&#160;&#160;&#160;&#160;&#160;&#160;&#160;&#160;&#160;&#160;&#160;&#160;&#160;&#160;&#160;&#160;&#160;&#160;&#160;&#160;&#160;&#160;&#160;&#160;&#160;&#160;&#160;&#160;&#160;&#160;&#160;&#160;&#160;&#160;&#160;&#160;&#160;&#160;&#160;&#160;&#160;&#160;&#160;&#160;&#160;&#160;&#160;&#160;&#160;&#160;&#160;&#160;&#160;&#160;&#160;&#160;&#160;&#160;&#160;&#160;&#160;&#160;&#160;&#160;</text>
<polygon fill="white" stroke="none" points="94.18,-224.81 94.18,-246.56 108.43,-246.56 108.43,-224.81 94.18,-224.81"/>
<polyline fill="none" stroke="black" points="108.43,-224.81 108.43,-246.56"/>
<text xml:space="preserve" text-anchor="start" x="97.18" y="-230.81" font-family="sans-serif" font-size="12.00">D</text>
<polygon fill="white" stroke="none" points="108.43,-224.81 108.43,-246.56 135.43,-246.56 135.43,-224.81 108.43,-224.81"/>
<polygon fill="none" stroke="black" points="108.43,-224.81 108.43,-246.56 135.43,-246.56 135.43,-224.81 108.43,-224.81"/>
<text xml:space="preserve" text-anchor="start" x="111.43" y="-230.81" font-family="sans-serif" font-size="12.00">ACL</text>
<polygon fill="white" stroke="none" points="47.64,-298.02 47.64,-319.77 61.14,-319.77 61.14,-298.02 47.64,-298.02"/>
<polyline fill="none" stroke="black" points="61.14,-298.02 61.14,-319.77"/>
<text xml:space="preserve" text-anchor="start" x="50.64" y="-304.02" font-family="sans-serif" font-size="12.00">U</text>
<polygon fill="white" stroke="none" points="61.14,-298.02 61.14,-319.77 110.64,-319.77 110.64,-298.02 61.14,-298.02"/>
<polygon fill="none" stroke="black" points="61.14,-298.02 61.14,-319.77 110.64,-319.77 110.64,-298.02 61.14,-298.02"/>
<text xml:space="preserve" text-anchor="start" x="64.14" y="-304.02" font-family="sans-serif" font-size="12.00">OHS, PL</text>
</g>
<!-- ProviderWallet&#45;&gt;MicroLending -->
<g id="edge11" class="edge">
<title>ProviderWallet&#45;&gt;MicroLending</title>
<path fill="none" stroke="black" stroke-width="2" d="M250.11,-162.39C296.74,-138.5 356.93,-107.66 402.35,-84.38"/>
<text xml:space="preserve" text-anchor="middle" x="381.16" y="-121.01" font-family="sans-serif" font-size="12.00">Customer/Supplier</text>
<polygon fill="white" stroke="none" points="396.23,-74.51 396.23,-94.26 408.48,-94.26 408.48,-74.51 396.23,-74.51"/>
<text xml:space="preserve" text-anchor="start" x="398.23" y="-79.51" font-family="sans-serif" font-size="12.00">D</text>
<polygon fill="white" stroke="none" points="244.36,-152.51 244.36,-172.26 255.86,-172.26 255.86,-152.51 244.36,-152.51"/>
<text xml:space="preserve" text-anchor="start" x="246.36" y="-157.51" font-family="sans-serif" font-size="12.00">U</text>
</g>
<!-- ProviderAccreditation -->
<g id="node12" class="node">
<title>ProviderAccreditation</title>
<polygon fill="none" stroke="black" stroke-width="2" points="1355.36,-716.12 1359.69,-713.55 1364.31,-711.05 1369.23,-708.64 1374.41,-706.33 1379.84,-704.12 1385.5,-702.04 1391.37,-700.07 1397.43,-698.24 1403.66,-696.55 1410.04,-695.01 1416.56,-693.61 1423.19,-692.38 1429.91,-691.31 1436.71,-690.4 1443.56,-689.66 1450.45,-689.08 1457.36,-688.68 1464.27,-688.45 1471.17,-688.38 1478.03,-688.48 1484.85,-688.75 1491.61,-689.18 1498.29,-689.76 1504.88,-690.5 1511.37,-691.38 1517.74,-692.41 1523.98,-693.57 1530.07,-694.86 1536.01,-696.27 1541.79,-697.8 1547.39,-699.43 1552.81,-701.15 1558.02,-702.97 1563.04,-704.87 1567.83,-706.84 1572.4,-708.87 1576.74,-710.96 1580.84,-713.1 1584.69,-715.27 1588.28,-717.48 1591.6,-719.71 1594.65,-721.96 1597.42,-724.22 1599.91,-726.48 1602.1,-728.74 1603.98,-730.98 1605.56,-733.22 1606.83,-735.43 1607.78,-737.62 1608.41,-739.79 1608.7,-741.92 1608.67,-744.01 1608.3,-746.07 1607.59,-748.09 1606.53,-750.07 1605.14,-752 1603.39,-753.88 1601.31,-755.71 1598.88,-757.5 1596.11,-759.23 1592.99,-760.92 1589.54,-762.55 1585.76,-764.13 1581.65,-765.65 1577.23,-767.12 1572.49,-768.53 1567.45,-769.88 1562.12,-771.18 1556.5,-772.41 1550.62,-773.59 1544.49,-774.7 1538.12,-775.74 1531.53,-776.72 1524.73,-777.63 1517.75,-778.47 1510.6,-779.23 1503.31,-779.91 1495.89,-780.52 1488.38,-781.04 1480.78,-781.47 1473.13,-781.82 1465.45,-782.07 1457.77,-782.22 1450.1,-782.27 1442.49,-782.22 1434.94,-782.06 1427.49,-781.78 1420.16,-781.4 1412.98,-780.9 1405.97,-780.28 1399.16,-779.54 1392.56,-778.68 1386.21,-777.7 1380.13,-776.59 1374.33,-775.35 1368.84,-774 1363.67,-772.52 1358.84,-770.92 1354.37,-769.19 1350.28,-767.36 1346.57,-765.41 1343.26,-763.35 1340.36,-761.19 1337.88,-758.93 1335.82,-756.57 1334.19,-754.14 1332.99,-751.62 1332.23,-749.04 1331.9,-746.39 1332,-743.69 1332.54,-740.95 1333.49,-738.18 1334.87,-735.38 1336.65,-732.58 1338.84,-729.77 1341.41,-726.97 1344.37,-724.2 1347.69,-721.46 1351.35,-718.76 1355.36,-716.12"/>
<text xml:space="preserve" text-anchor="middle" x="1474.81" y="-733.28" font-family="sans-serif" font-size="16.00">ProviderAccreditation</text>
</g>
<!-- ProviderAccreditation&#45;&gt;RecurringServices -->
<g id="edge12" class="edge">
<title>ProviderAccreditation&#45;&gt;RecurringServices</title>
<path fill="none" stroke="black" stroke-width="2" d="M1547.33,-698.9C1558.33,-690.64 1568.7,-681.11 1576.81,-670.38 1675.74,-539.49 1701.84,-433.77 1603.81,-302.21 1565.87,-251.3 1499.25,-226.09 1441.56,-213.62"/>
<text xml:space="preserve" text-anchor="middle" x="1813.52" y="-424.04" font-family="sans-serif" font-size="12.00"> &#160;&#160;&#160;&#160;&#160;&#160;&#160;&#160;&#160;&#160;&#160;&#160;&#160;&#160;&#160;&#160;&#160;&#160;&#160;&#160;&#160;&#160;&#160;&#160;&#160;&#160;&#160;&#160;&#160;&#160;&#160;&#160;&#160;&#160;&#160;&#160;&#160;&#160;&#160;&#160;&#160;&#160;&#160;&#160;&#160;&#160;&#160;&#160;&#160;&#160;&#160;&#160;&#160;&#160;&#160;&#160;&#160;&#160;&#160;&#160;&#160;&#160;&#160;&#160;&#160;&#160;&#160;&#160;&#160;&#160;&#160;&#160;&#160;&#160;&#160;&#160;&#160;&#160;&#160;</text>
<polygon fill="white" stroke="none" points="1435.44,-203.75 1435.44,-223.5 1447.69,-223.5 1447.69,-203.75 1435.44,-203.75"/>
<text xml:space="preserve" text-anchor="start" x="1437.44" y="-208.75" font-family="sans-serif" font-size="12.00">D</text>
<polygon fill="white" stroke="none" points="1515.83,-688.03 1515.83,-709.78 1529.33,-709.78 1529.33,-688.03 1515.83,-688.03"/>
<polyline fill="none" stroke="black" points="1529.33,-688.03 1529.33,-709.78"/>
<text xml:space="preserve" text-anchor="start" x="1518.83" y="-694.03" font-family="sans-serif" font-size="12.00">U</text>
<polygon fill="white" stroke="none" points="1529.33,-688.03 1529.33,-709.78 1578.83,-709.78 1578.83,-688.03 1529.33,-688.03"/>
<polygon fill="none" stroke="black" points="1529.33,-688.03 1529.33,-709.78 1578.83,-709.78 1578.83,-688.03 1529.33,-688.03"/>
<text xml:space="preserve" text-anchor="start" x="1532.33" y="-694.03" font-family="sans-serif" font-size="12.00">OHS, PL</text>
</g>
<!-- ProviderMatching -->
<g id="node13" class="node">
<title>ProviderMatching</title>
<polygon fill="none" stroke="black" stroke-width="2" points="1534.06,-541.88 1527.5,-543.4 1520.83,-544.81 1514.06,-546.09 1507.22,-547.24 1500.33,-548.27 1493.43,-549.15 1486.53,-549.89 1479.67,-550.48 1472.86,-550.93 1466.13,-551.22 1459.5,-551.36 1453,-551.34 1446.63,-551.17 1440.42,-550.85 1434.39,-550.37 1428.56,-549.74 1422.93,-548.96 1417.52,-548.03 1412.33,-546.96 1407.39,-545.75 1402.7,-544.4 1398.27,-542.93 1394.09,-541.33 1390.19,-539.61 1386.55,-537.78 1383.18,-535.85 1380.09,-533.83 1377.27,-531.71 1374.72,-529.52 1372.44,-527.25 1370.42,-524.93 1368.68,-522.54 1367.19,-520.12 1365.96,-517.65 1364.99,-515.16 1364.26,-512.65 1363.78,-510.13 1363.54,-507.61 1363.53,-505.1 1363.76,-502.6 1364.21,-500.13 1364.89,-497.68 1365.79,-495.27 1366.9,-492.91 1368.22,-490.6 1369.76,-488.34 1371.51,-486.15 1373.46,-484.02 1375.61,-481.97 1377.97,-479.99 1380.53,-478.1 1383.29,-476.29 1386.25,-474.57 1389.4,-472.94 1392.76,-471.4 1396.3,-469.95 1400.05,-468.61 1403.98,-467.36 1408.1,-466.21 1412.41,-465.16 1416.91,-464.21 1421.58,-463.36 1426.43,-462.62 1431.45,-461.97 1436.64,-461.42 1441.98,-460.98 1447.47,-460.63 1453.1,-460.38 1458.85,-460.23 1464.73,-460.17 1470.7,-460.21 1476.77,-460.35 1482.92,-460.58 1489.13,-460.91 1495.38,-461.32 1501.65,-461.83 1507.93,-462.43 1514.2,-463.12 1520.43,-463.9 1526.6,-464.77 1532.7,-465.72 1538.7,-466.76 1544.58,-467.89 1550.31,-469.1 1555.86,-470.39 1561.23,-471.76 1566.38,-473.21 1571.3,-474.75 1575.95,-476.35 1580.32,-478.04 1584.39,-479.79 1588.14,-481.62 1591.54,-483.51 1594.59,-485.46 1597.27,-487.48 1599.56,-489.55 1601.45,-491.68 1602.93,-493.86 1603.98,-496.08 1604.61,-498.34 1604.81,-500.63 1604.57,-502.96 1603.89,-505.3 1602.78,-507.67 1601.23,-510.04 1599.26,-512.42 1596.86,-514.79 1594.06,-517.16 1590.85,-519.5 1587.26,-521.82 1583.29,-524.11 1578.97,-526.35 1574.31,-528.55 1569.33,-530.69 1564.06,-532.76 1558.51,-534.76 1552.71,-536.68 1546.69,-538.51 1540.46,-540.25 1534.06,-541.88"/>
<text xml:space="preserve" text-anchor="middle" x="1474.81" y="-498.01" font-family="sans-serif" font-size="16.00">ProviderMatching</text>
</g>
<!-- ProviderAccreditation&#45;&gt;ProviderMatching -->
<g id="edge13" class="edge">
<title>ProviderAccreditation&#45;&gt;ProviderMatching</title>
<path fill="none" stroke="black" stroke-width="2" d="M1474.81,-688.17C1474.81,-647.8 1474.81,-591.01 1474.81,-551.21"/>
<text xml:space="preserve" text-anchor="middle" x="1523.93" y="-617.03" font-family="sans-serif" font-size="12.00">Customer/Supplier</text>
<polygon fill="white" stroke="none" points="1468.68,-541.34 1468.68,-561.09 1480.93,-561.09 1480.93,-541.34 1468.68,-541.34"/>
<text xml:space="preserve" text-anchor="start" x="1470.68" y="-546.34" font-family="sans-serif" font-size="12.00">D</text>
<polygon fill="white" stroke="none" points="1469.06,-678.3 1469.06,-698.05 1480.56,-698.05 1480.56,-678.3 1469.06,-678.3"/>
<text xml:space="preserve" text-anchor="start" x="1471.06" y="-683.3" font-family="sans-serif" font-size="12.00">U</text>
</g>
<!-- ProviderMatching&#45;&gt;WorkOrchestration -->
<g id="edge15" class="edge">
<title>ProviderMatching&#45;&gt;WorkOrchestration</title>
<path fill="none" stroke="black" stroke-width="2" d="M1405.43,-466.6C1370.62,-450.11 1327.33,-431.58 1286.81,-419.69 1185.5,-389.98 1066.32,-372.63 980.84,-363.11"/>
<text xml:space="preserve" text-anchor="middle" x="1359.35" y="-424.04" font-family="sans-serif" font-size="12.00">Partnership</text>
</g>
<!-- ProviderMatching&#45;&gt;RecurringServices -->
<g id="edge14" class="edge">
<title>ProviderMatching&#45;&gt;RecurringServices</title>
<path fill="none" stroke="black" stroke-width="2" d="M1487.88,-460.39C1500.83,-410.55 1513.88,-326.6 1476.81,-268.46 1465.02,-249.98 1446.67,-236.51 1426.96,-226.73"/>
<text xml:space="preserve" text-anchor="middle" x="1550.23" y="-348.43" font-family="sans-serif" font-size="12.00">Customer/Supplier</text>
<polygon fill="white" stroke="none" points="1420.84,-216.85 1420.84,-236.6 1433.09,-236.6 1433.09,-216.85 1420.84,-216.85"/>
<text xml:space="preserve" text-anchor="start" x="1422.84" y="-221.85" font-family="sans-serif" font-size="12.00">D</text>
<polygon fill="white" stroke="none" points="1482.13,-450.51 1482.13,-470.26 1493.63,-470.26 1493.63,-450.51 1482.13,-450.51"/>
<text xml:space="preserve" text-anchor="start" x="1484.13" y="-455.51" font-family="sans-serif" font-size="12.00">U</text>
</g>
<!-- ProviderRegistry -->
<g id="node14" class="node">
<title>ProviderRegistry</title>
<polygon fill="none" stroke="black" stroke-width="2" points="1547.41,-862.19 1552.07,-864.46 1556.47,-866.8 1560.57,-869.2 1564.36,-871.63 1567.82,-874.11 1570.94,-876.61 1573.71,-879.12 1576.11,-881.65 1578.13,-884.17 1579.76,-886.68 1581,-889.18 1581.83,-891.66 1582.27,-894.1 1582.29,-896.5 1581.91,-898.85 1581.12,-901.16 1579.93,-903.41 1578.35,-905.59 1576.38,-907.71 1574.03,-909.75 1571.3,-911.72 1568.23,-913.61 1564.81,-915.42 1561.06,-917.14 1557,-918.78 1552.65,-920.32 1548.02,-921.78 1543.14,-923.15 1538.02,-924.42 1532.69,-925.6 1527.16,-926.69 1521.47,-927.68 1515.63,-928.59 1509.67,-929.4 1503.6,-930.11 1497.45,-930.74 1491.25,-931.27 1485.01,-931.71 1478.75,-932.07 1472.5,-932.33 1466.28,-932.5 1460.1,-932.58 1453.99,-932.58 1447.96,-932.49 1442.03,-932.3 1436.21,-932.03 1430.51,-931.68 1424.96,-931.23 1419.57,-930.7 1414.33,-930.08 1409.28,-929.37 1404.4,-928.57 1399.72,-927.69 1395.24,-926.72 1390.96,-925.66 1386.89,-924.51 1383.04,-923.28 1379.41,-921.96 1376,-920.55 1372.81,-919.06 1369.84,-917.49 1367.11,-915.83 1364.6,-914.09 1362.31,-912.27 1360.26,-910.38 1358.43,-908.42 1356.82,-906.38 1355.45,-904.28 1354.3,-902.11 1353.37,-899.89 1352.67,-897.61 1352.2,-895.29 1351.95,-892.92 1351.93,-890.52 1352.13,-888.09 1352.55,-885.64 1353.2,-883.17 1354.08,-880.69 1355.18,-878.22 1356.51,-875.75 1358.07,-873.3 1359.85,-870.88 1361.86,-868.49 1364.1,-866.15 1366.57,-863.86 1369.27,-861.63 1372.2,-859.47 1375.35,-857.39 1378.73,-855.4 1382.33,-853.5 1386.15,-851.71 1390.18,-850.04 1394.43,-848.48 1398.89,-847.05 1403.55,-845.75 1408.41,-844.59 1413.44,-843.58 1418.66,-842.72 1424.05,-842.01 1429.59,-841.45 1435.27,-841.06 1441.09,-840.83 1447.02,-840.76 1453.05,-840.85 1459.17,-841.11 1465.35,-841.53 1471.58,-842.11 1477.84,-842.84 1484.1,-843.73 1490.36,-844.78 1496.58,-845.96 1502.75,-847.29 1508.84,-848.76 1514.83,-850.35 1520.69,-852.06 1526.42,-853.89 1531.97,-855.83 1537.33,-857.86 1542.49,-859.98 1547.41,-862.19"/>
<text xml:space="preserve" text-anchor="middle" x="1458.81" y="-885.01" font-family="sans-serif" font-size="16.00">ProviderRegistry</text>
</g>
<!-- ProviderRegistry&#45;&gt;ProviderAccreditation -->
<g id="edge16" class="edge">
<title>ProviderRegistry&#45;&gt;ProviderAccreditation</title>
<path fill="none" stroke="black" stroke-width="2" d="M1463.91,-841.3C1465.93,-822.39 1468.24,-800.81 1470.21,-782.39"/>
<text xml:space="preserve" text-anchor="middle" x="1516.41" y="-810.69" font-family="sans-serif" font-size="12.00">Customer/Supplier</text>
<polygon fill="white" stroke="none" points="1464.08,-772.51 1464.08,-792.26 1476.33,-792.26 1476.33,-772.51 1464.08,-772.51"/>
<text xml:space="preserve" text-anchor="start" x="1466.08" y="-777.51" font-family="sans-serif" font-size="12.00">D</text>
<polygon fill="white" stroke="none" points="1458.16,-831.43 1458.16,-851.18 1469.66,-851.18 1469.66,-831.43 1458.16,-831.43"/>
<text xml:space="preserve" text-anchor="start" x="1460.16" y="-836.43" font-family="sans-serif" font-size="12.00">U</text>
</g>
<!-- Quotations -->
<g id="node15" class="node">
<title>Quotations</title>
<polygon fill="none" stroke="black" stroke-width="2" points="1164.2,-529.1 1160.9,-526.73 1157.82,-524.3 1154.97,-521.83 1152.35,-519.31 1149.98,-516.77 1147.87,-514.21 1146.04,-511.64 1144.48,-509.07 1143.2,-506.51 1142.22,-503.96 1141.54,-501.44 1141.15,-498.96 1141.07,-496.51 1141.29,-494.11 1141.81,-491.77 1142.64,-489.48 1143.76,-487.26 1145.17,-485.11 1146.87,-483.04 1148.84,-481.05 1151.09,-479.14 1153.6,-477.31 1156.36,-475.58 1159.36,-473.94 1162.58,-472.39 1166.02,-470.93 1169.66,-469.58 1173.48,-468.31 1177.46,-467.15 1181.6,-466.08 1185.88,-465.11 1190.27,-464.23 1194.77,-463.45 1199.35,-462.77 1203.99,-462.18 1208.69,-461.68 1213.43,-461.28 1218.18,-460.97 1222.93,-460.75 1227.67,-460.62 1232.38,-460.57 1237.05,-460.62 1241.66,-460.75 1246.2,-460.97 1250.66,-461.28 1255.02,-461.67 1259.28,-462.14 1263.43,-462.7 1267.44,-463.35 1271.33,-464.07 1275.07,-464.89 1278.67,-465.78 1282.12,-466.76 1285.4,-467.83 1288.52,-468.97 1291.48,-470.2 1294.26,-471.52 1296.87,-472.91 1299.3,-474.39 1301.56,-475.94 1303.64,-477.58 1305.54,-479.29 1307.26,-481.08 1308.8,-482.94 1310.17,-484.87 1311.35,-486.87 1312.36,-488.94 1313.19,-491.07 1313.84,-493.25 1314.32,-495.49 1314.62,-497.78 1314.74,-500.11 1314.7,-502.48 1314.48,-504.88 1314.08,-507.3 1313.52,-509.74 1312.78,-512.19 1311.88,-514.65 1310.8,-517.1 1309.55,-519.53 1308.14,-521.95 1306.55,-524.33 1304.79,-526.67 1302.87,-528.96 1300.78,-531.2 1298.52,-533.37 1296.1,-535.47 1293.52,-537.48 1290.77,-539.39 1287.87,-541.21 1284.81,-542.92 1281.59,-544.51 1278.23,-545.97 1274.73,-547.31 1271.09,-548.51 1267.31,-549.56 1263.41,-550.47 1259.38,-551.23 1255.25,-551.82 1251.02,-552.26 1246.69,-552.54 1242.28,-552.65 1237.8,-552.59 1233.26,-552.37 1228.67,-551.99 1224.05,-551.44 1219.41,-550.73 1214.76,-549.87 1210.12,-548.85 1205.5,-547.68 1200.93,-546.36 1196.41,-544.91 1191.96,-543.32 1187.6,-541.6 1183.34,-539.77 1179.21,-537.82 1175.21,-535.77 1171.37,-533.63 1167.69,-531.4 1164.2,-529.1"/>
<text xml:space="preserve" text-anchor="middle" x="1233.81" y="-498.01" font-family="sans-serif" font-size="16.00">Quotations</text>
</g>
<!-- Quotations&#45;&gt;WorkOrchestration -->
<g id="edge17" class="edge">
<title>Quotations&#45;&gt;WorkOrchestration</title>
<path fill="none" stroke="black" stroke-width="2" d="M1231.58,-460.12C1228.7,-445.46 1222.96,-430.09 1211.81,-419.69 1178.79,-388.9 1068.64,-371.41 981.58,-362.13"/>
<text xml:space="preserve" text-anchor="middle" x="1252.7" y="-424.04" font-family="sans-serif" font-size="12.00">Partnership</text>
</g>
<!-- RegionalOperations -->
<g id="node16" class="node">
<title>RegionalOperations</title>
<polygon fill="none" stroke="black" stroke-width="2" points="619.66,-845.43 628.01,-845.73 636.26,-846.14 644.39,-846.68 652.36,-847.34 660.13,-848.11 667.69,-849 674.99,-850 682.02,-851.11 688.74,-852.33 695.13,-853.65 701.16,-855.07 706.83,-856.58 712.11,-858.18 716.98,-859.88 721.43,-861.65 725.45,-863.5 729.03,-865.42 732.17,-867.41 734.86,-869.46 737.1,-871.57 738.89,-873.73 740.23,-875.93 741.13,-878.17 741.6,-880.45 741.64,-882.74 741.27,-885.06 740.49,-887.4 739.33,-889.74 737.79,-892.08 735.89,-894.41 733.65,-896.74 731.08,-899.04 728.21,-901.32 725.05,-903.57 721.62,-905.79 717.95,-907.96 714.04,-910.08 709.92,-912.15 705.6,-914.16 701.11,-916.1 696.46,-917.98 691.66,-919.77 686.74,-921.49 681.7,-923.12 676.57,-924.66 671.35,-926.11 666.05,-927.46 660.69,-928.7 655.28,-929.85 649.82,-930.88 644.33,-931.8 638.8,-932.61 633.26,-933.3 627.69,-933.88 622.12,-934.33 616.53,-934.66 610.95,-934.88 605.36,-934.96 599.78,-934.93 594.21,-934.77 588.64,-934.49 583.1,-934.09 577.57,-933.57 572.07,-932.93 566.59,-932.17 561.15,-931.29 555.75,-930.3 550.4,-929.2 545.11,-928 539.88,-926.69 534.72,-925.27 529.64,-923.76 524.66,-922.16 519.79,-920.47 515.05,-918.69 510.43,-916.84 505.97,-914.91 501.67,-912.91 497.56,-910.85 493.65,-908.73 489.96,-906.56 486.5,-904.35 483.29,-902.1 480.36,-899.81 477.72,-897.49 475.38,-895.16 473.38,-892.81 471.71,-890.45 470.4,-888.09 469.47,-885.74 468.93,-883.4 468.79,-881.08 469.06,-878.78 469.75,-876.51 470.88,-874.29 472.44,-872.1 474.44,-869.97 476.89,-867.89 479.78,-865.87 483.12,-863.92 486.89,-862.04 491.09,-860.24 495.72,-858.52 500.75,-856.89 506.19,-855.35 512,-853.91 518.17,-852.57 524.69,-851.33 531.53,-850.19 538.66,-849.17 546.06,-848.26 553.7,-847.46 561.55,-846.78 569.58,-846.23 577.75,-845.79 586.04,-845.47 594.41,-845.28 602.83,-845.2 611.26,-845.26 619.66,-845.43"/>
<text xml:space="preserve" text-anchor="middle" x="604.81" y="-885.01" font-family="sans-serif" font-size="16.00">RegionalOperations</text>
</g>
<!-- RegionalOperations&#45;&gt;MarketplaceIntake -->
<g id="edge18" class="edge">
<title>RegionalOperations&#45;&gt;MarketplaceIntake</title>
<path fill="none" stroke="black" stroke-width="2" d="M706.37,-855.96C720.95,-847.1 734.23,-835.99 743.81,-822.09 775.81,-775.61 774.2,-707.97 768.65,-664.36"/>
<text xml:space="preserve" text-anchor="middle" x="901.7" y="-810.69" font-family="sans-serif" font-size="12.00"> &#160;&#160;&#160;&#160;&#160;&#160;&#160;&#160;&#160;&#160;&#160;&#160;&#160;&#160;&#160;&#160;&#160;&#160;&#160;&#160;&#160;&#160;&#160;&#160;&#160;&#160;&#160;&#160;&#160;&#160;&#160;&#160;&#160;&#160;&#160;&#160;&#160;&#160;&#160;&#160;&#160;&#160;&#160;&#160;&#160;&#160;&#160;&#160;&#160;&#160;&#160;&#160;&#160;&#160;&#160;&#160;&#160;&#160;&#160;&#160;&#160;&#160;&#160;&#160;&#160;&#160;&#160;&#160;&#160;&#160;&#160;&#160;&#160;&#160;&#160;&#160;&#160;&#160;&#160;</text>
<polygon fill="white" stroke="none" points="762.53,-654.48 762.53,-674.23 774.78,-674.23 774.78,-654.48 762.53,-654.48"/>
<text xml:space="preserve" text-anchor="start" x="764.53" y="-659.48" font-family="sans-serif" font-size="12.00">D</text>
<polygon fill="white" stroke="none" points="674.87,-845.09 674.87,-866.84 688.37,-866.84 688.37,-845.09 674.87,-845.09"/>
<polyline fill="none" stroke="black" points="688.37,-845.09 688.37,-866.84"/>
<text xml:space="preserve" text-anchor="start" x="677.87" y="-851.09" font-family="sans-serif" font-size="12.00">U</text>
<polygon fill="white" stroke="none" points="688.37,-845.09 688.37,-866.84 737.87,-866.84 737.87,-845.09 688.37,-845.09"/>
<polygon fill="none" stroke="black" points="688.37,-845.09 688.37,-866.84 737.87,-866.84 737.87,-845.09 688.37,-845.09"/>
<text xml:space="preserve" text-anchor="start" x="691.37" y="-851.09" font-family="sans-serif" font-size="12.00">OHS, PL</text>
</g>
<!-- RegionalOperations&#45;&gt;PartnerRules -->
<g id="edge21" class="edge">
<title>RegionalOperations&#45;&gt;PartnerRules</title>
<path fill="none" stroke="black" stroke-width="2" d="M489.12,-860.83C471.21,-851.4 454.98,-838.84 443.81,-822.09 412.38,-774.97 424.48,-706.87 437.51,-663.41"/>
<text xml:space="preserve" text-anchor="middle" x="593.81" y="-810.69" font-family="sans-serif" font-size="12.00"> &#160;&#160;&#160;&#160;&#160;&#160;&#160;&#160;&#160;&#160;&#160;&#160;&#160;&#160;&#160;&#160;&#160;&#160;&#160;&#160;&#160;&#160;&#160;&#160;&#160;&#160;&#160;&#160;&#160;&#160;&#160;&#160;&#160;&#160;&#160;&#160;&#160;&#160;&#160;&#160;&#160;&#160;&#160;&#160;&#160;&#160;&#160;&#160;&#160;&#160;&#160;&#160;&#160;&#160;&#160;&#160;&#160;&#160;&#160;&#160;&#160;&#160;&#160;&#160;&#160;&#160;&#160;&#160;&#160;&#160;&#160;&#160;&#160;&#160;&#160;&#160;&#160;&#160;&#160;</text>
<polygon fill="white" stroke="none" points="431.38,-653.53 431.38,-673.28 443.63,-673.28 443.63,-653.53 431.38,-653.53"/>
<text xml:space="preserve" text-anchor="start" x="433.38" y="-658.53" font-family="sans-serif" font-size="12.00">D</text>
<polygon fill="white" stroke="none" points="457.62,-849.96 457.62,-871.71 471.12,-871.71 471.12,-849.96 457.62,-849.96"/>
<polyline fill="none" stroke="black" points="471.12,-849.96 471.12,-871.71"/>
<text xml:space="preserve" text-anchor="start" x="460.62" y="-855.96" font-family="sans-serif" font-size="12.00">U</text>
<polygon fill="white" stroke="none" points="471.12,-849.96 471.12,-871.71 520.62,-871.71 520.62,-849.96 471.12,-849.96"/>
<polygon fill="none" stroke="black" points="471.12,-849.96 471.12,-871.71 520.62,-871.71 520.62,-849.96 471.12,-849.96"/>
<text xml:space="preserve" text-anchor="start" x="474.12" y="-855.96" font-family="sans-serif" font-size="12.00">OHS, PL</text>
</g>
<!-- RegionalOperations&#45;&gt;Payments -->
<g id="edge20" class="edge">
<title>RegionalOperations&#45;&gt;Payments</title>
<path fill="none" stroke="black" stroke-width="2" d="M469.04,-878.1C336.3,-859.31 140.85,-808.39 46.81,-670.38 -9.55,-587.68 32.79,-464.07 62.78,-398.16"/>
<text xml:space="preserve" text-anchor="middle" x="196.81" y="-617.03" font-family="sans-serif" font-size="12.00"> &#160;&#160;&#160;&#160;&#160;&#160;&#160;&#160;&#160;&#160;&#160;&#160;&#160;&#160;&#160;&#160;&#160;&#160;&#160;&#160;&#160;&#160;&#160;&#160;&#160;&#160;&#160;&#160;&#160;&#160;&#160;&#160;&#160;&#160;&#160;&#160;&#160;&#160;&#160;&#160;&#160;&#160;&#160;&#160;&#160;&#160;&#160;&#160;&#160;&#160;&#160;&#160;&#160;&#160;&#160;&#160;&#160;&#160;&#160;&#160;&#160;&#160;&#160;&#160;&#160;&#160;&#160;&#160;&#160;&#160;&#160;&#160;&#160;&#160;&#160;&#160;&#160;&#160;&#160;</text>
<polygon fill="white" stroke="none" points="56.66,-388.28 56.66,-408.03 68.91,-408.03 68.91,-388.28 56.66,-388.28"/>
<text xml:space="preserve" text-anchor="start" x="58.66" y="-393.28" font-family="sans-serif" font-size="12.00">D</text>
<polygon fill="white" stroke="none" points="437.54,-867.23 437.54,-888.98 451.04,-888.98 451.04,-867.23 437.54,-867.23"/>
<polyline fill="none" stroke="black" points="451.04,-867.23 451.04,-888.98"/>
<text xml:space="preserve" text-anchor="start" x="440.54" y="-873.23" font-family="sans-serif" font-size="12.00">U</text>
<polygon fill="white" stroke="none" points="451.04,-867.23 451.04,-888.98 500.54,-888.98 500.54,-867.23 451.04,-867.23"/>
<polygon fill="none" stroke="black" points="451.04,-867.23 451.04,-888.98 500.54,-888.98 500.54,-867.23 451.04,-867.23"/>
<text xml:space="preserve" text-anchor="start" x="454.04" y="-873.23" font-family="sans-serif" font-size="12.00">OHS, PL</text>
</g>
<!-- RegionalOperations&#45;&gt;ProviderAccreditation -->
<g id="edge19" class="edge">
<title>RegionalOperations&#45;&gt;ProviderAccreditation</title>
<path fill="none" stroke="black" stroke-width="2" d="M737.92,-872.01C831.08,-859.54 958.31,-841.49 1069.81,-822.09 1163.66,-805.75 1269.08,-784.11 1348.84,-767.06"/>
<text xml:space="preserve" text-anchor="middle" x="1297.62" y="-810.69" font-family="sans-serif" font-size="12.00"> &#160;&#160;&#160;&#160;&#160;&#160;&#160;&#160;&#160;&#160;&#160;&#160;&#160;&#160;&#160;&#160;&#160;&#160;&#160;&#160;&#160;&#160;&#160;&#160;&#160;&#160;&#160;&#160;&#160;&#160;&#160;&#160;&#160;&#160;&#160;&#160;&#160;&#160;&#160;&#160;&#160;&#160;&#160;&#160;&#160;&#160;&#160;&#160;&#160;&#160;&#160;&#160;&#160;&#160;&#160;&#160;&#160;&#160;&#160;&#160;&#160;&#160;&#160;&#160;&#160;&#160;&#160;&#160;&#160;&#160;&#160;&#160;&#160;&#160;&#160;&#160;&#160;&#160;&#160;</text>
<polygon fill="white" stroke="none" points="1342.71,-757.19 1342.71,-776.94 1354.96,-776.94 1354.96,-757.19 1342.71,-757.19"/>
<text xml:space="preserve" text-anchor="start" x="1344.71" y="-762.19" font-family="sans-serif" font-size="12.00">D</text>
<polygon fill="white" stroke="none" points="706.42,-861.13 706.42,-882.88 719.92,-882.88 719.92,-861.13 706.42,-861.13"/>
<polyline fill="none" stroke="black" points="719.92,-861.13 719.92,-882.88"/>
<text xml:space="preserve" text-anchor="start" x="709.42" y="-867.13" font-family="sans-serif" font-size="12.00">U</text>
<polygon fill="white" stroke="none" points="719.92,-861.13 719.92,-882.88 769.42,-882.88 769.42,-861.13 719.92,-861.13"/>
<polygon fill="none" stroke="black" points="719.92,-861.13 719.92,-882.88 769.42,-882.88 769.42,-861.13 719.92,-861.13"/>
<text xml:space="preserve" text-anchor="start" x="722.92" y="-867.13" font-family="sans-serif" font-size="12.00">OHS, PL</text>
</g>
<!-- VerificationAuthorities -->
<g id="node17" class="node">
<title>VerificationAuthorities</title>
<polygon fill="none" stroke="black" stroke-width="2" points="1878.65,-874.45 1881.97,-877.19 1884.91,-879.95 1887.45,-882.73 1889.58,-885.52 1891.29,-888.29 1892.57,-891.06 1893.42,-893.79 1893.82,-896.48 1893.77,-899.13 1893.27,-901.72 1892.32,-904.25 1890.92,-906.71 1889.07,-909.08 1886.78,-911.37 1884.05,-913.56 1880.89,-915.66 1877.31,-917.65 1873.32,-919.53 1868.94,-921.3 1864.18,-922.96 1859.06,-924.5 1853.59,-925.91 1847.8,-927.21 1841.69,-928.39 1835.31,-929.45 1828.66,-930.38 1821.77,-931.2 1814.67,-931.9 1807.39,-932.48 1799.93,-932.95 1792.34,-933.3 1784.64,-933.55 1776.86,-933.69 1769.02,-933.73 1761.14,-933.66 1753.26,-933.5 1745.4,-933.25 1737.59,-932.9 1729.85,-932.46 1722.2,-931.95 1714.66,-931.34 1707.27,-930.66 1700.04,-929.91 1692.99,-929.08 1686.14,-928.17 1679.52,-927.2 1673.12,-926.16 1666.98,-925.06 1661.11,-923.89 1655.51,-922.65 1650.21,-921.36 1645.21,-920 1640.53,-918.58 1636.16,-917.11 1632.12,-915.58 1628.42,-913.98 1625.05,-912.34 1622.02,-910.64 1619.34,-908.88 1617.01,-907.07 1615.02,-905.21 1613.38,-903.29 1612.09,-901.33 1611.14,-899.32 1610.54,-897.27 1610.28,-895.18 1610.35,-893.04 1610.75,-890.87 1611.48,-888.67 1612.54,-886.44 1613.91,-884.19 1615.59,-881.93 1617.59,-879.64 1619.88,-877.36 1622.46,-875.07 1625.34,-872.79 1628.49,-870.52 1631.92,-868.27 1635.62,-866.05 1639.58,-863.87 1643.79,-861.74 1648.24,-859.65 1652.93,-857.63 1657.85,-855.67 1662.99,-853.8 1668.33,-852.01 1673.88,-850.32 1679.62,-848.73 1685.54,-847.25 1691.64,-845.89 1697.89,-844.66 1704.29,-843.56 1710.83,-842.6 1717.48,-841.79 1724.25,-841.13 1731.12,-840.62 1738.06,-840.28 1745.07,-840.1 1752.13,-840.09 1759.23,-840.24 1766.34,-840.57 1773.44,-841.06 1780.53,-841.72 1787.58,-842.55 1794.57,-843.55 1801.49,-844.71 1808.3,-846.02 1815,-847.49 1821.55,-849.11 1827.95,-850.87 1834.17,-852.77 1840.18,-854.79 1845.98,-856.93 1851.53,-859.18 1856.81,-861.53 1861.82,-863.98 1866.52,-866.5 1870.91,-869.09 1874.95,-871.75 1878.65,-874.45"/>
<text xml:space="preserve" text-anchor="middle" x="1746.81" y="-885.01" font-family="sans-serif" font-size="16.00">VerificationAuthorities</text>
</g>
<!-- VerificationAuthorities&#45;&gt;ProviderAccreditation -->
<g id="edge22" class="edge">
<title>VerificationAuthorities&#45;&gt;ProviderAccreditation</title>
<path fill="none" stroke="black" stroke-width="2" d="M1674.99,-849.55C1633.43,-826.68 1581.51,-798.1 1540.96,-775.77"/>
<text xml:space="preserve" text-anchor="middle" x="1768.96" y="-810.69" font-family="sans-serif" font-size="12.00"> &#160;&#160;&#160;&#160;&#160;&#160;&#160;&#160;&#160;&#160;&#160;&#160;&#160;&#160;&#160;&#160;&#160;&#160;&#160;&#160;&#160;&#160;&#160;&#160;&#160;&#160;&#160;&#160;&#160;&#160;&#160;&#160;&#160;&#160;&#160;&#160;&#160;&#160;&#160;&#160;&#160;&#160;&#160;&#160;&#160;&#160;&#160;&#160;&#160;&#160;&#160;&#160;&#160;&#160;&#160;&#160;&#160;&#160;&#160;&#160;&#160;&#160;&#160;&#160;&#160;&#160;&#160;&#160;&#160;&#160;&#160;&#160;&#160;&#160;&#160;&#160;&#160;&#160;&#160;</text>
<polygon fill="white" stroke="none" points="1520.33,-764.9 1520.33,-786.65 1534.58,-786.65 1534.58,-764.9 1520.33,-764.9"/>
<polyline fill="none" stroke="black" points="1534.58,-764.9 1534.58,-786.65"/>
<text xml:space="preserve" text-anchor="start" x="1523.33" y="-770.9" font-family="sans-serif" font-size="12.00">D</text>
<polygon fill="white" stroke="none" points="1534.58,-764.9 1534.58,-786.65 1561.58,-786.65 1561.58,-764.9 1534.58,-764.9"/>
<polygon fill="none" stroke="black" points="1534.58,-764.9 1534.58,-786.65 1561.58,-786.65 1561.58,-764.9 1534.58,-764.9"/>
<text xml:space="preserve" text-anchor="start" x="1537.58" y="-770.9" font-family="sans-serif" font-size="12.00">ACL</text>
<polygon fill="white" stroke="none" points="1669.24,-839.68 1669.24,-859.43 1680.74,-859.43 1680.74,-839.68 1669.24,-839.68"/>
<text xml:space="preserve" text-anchor="start" x="1671.24" y="-844.68" font-family="sans-serif" font-size="12.00">U</text>
</g>
</g>
</svg>
